<?xml version="1.0" standalone="no"?><!DOCTYPE svg PUBLIC "-//W3C//DTD SVG 1.1//EN" "http://www.w3.org/Graphics/SVG/1.1/DTD/svg11.dtd"><svg t="1587809623098" class="icon" viewBox="0 0 1024 1024" version="1.1" xmlns="http://www.w3.org/2000/svg" p-id="2391" xmlns:xlink="http://www.w3.org/1999/xlink" width="32" height="32"><defs><style type="text/css"></style></defs><path d="M883.1 818.7H143.9c-23.7 0-43-19.3-43-43V316c0-23.7 19.3-43 43-43h739.2c23.7 0 43 19.3 43 43v459.7c0 23.7-19.3 43-43 43z m-718.1-64h697.1V337.1H165v417.6z" p-id="2392" fill="#ffffff"></path><path d="M786.5 730.9H240.6c-21.8 0-39.5-17.7-39.5-39.5v-291c0-21.8 17.7-39.5 39.5-39.5h545.9c21.8 0 39.5 17.7 39.5 39.5v291c0 21.8-17.7 39.5-39.5 39.5z m-521.4-64H762v-242H265.1v242z" p-id="2393" fill="#ffffff"></path><path d="M695.1 533.3H332c-17.7 0-32-14.3-32-32s14.3-32 32-32h363.1c17.7 0 32 14.3 32 32s-14.3 32-32 32zM695.1 622.5H332c-17.7 0-32-14.3-32-32s14.3-32 32-32h363.1c17.7 0 32 14.3 32 32s-14.3 32-32 32z" p-id="2394" fill="#ffffff"></path><path d="M526.9 135m-75 0a75 75 0 1 0 150 0 75 75 0 1 0-150 0Z" p-id="2395" fill="#ffffff"></path><path d="M198.513 279.298l309.232-166.504 30.342 56.352L228.856 335.65z" p-id="2396" fill="#ffffff"></path><path d="M519.606 169.133l30.342-56.352L859.18 279.285l-30.343 56.352z" p-id="2397" fill="#ffffff"></path></svg>